<?xml version="1.0" encoding="utf-8"?>
<!-- Generator: Adobe Illustrator 15.1.0, SVG Export Plug-In . SVG Version: 6.00 Build 0)  -->
<!DOCTYPE svg PUBLIC "-//W3C//DTD SVG 1.1//EN" "http://www.w3.org/Graphics/SVG/1.1/DTD/svg11.dtd">
<svg version="1.1" id="Layer_1" xmlns="http://www.w3.org/2000/svg" xmlns:xlink="http://www.w3.org/1999/xlink" x="0px" y="0px"
	 width="30px" height="30px" viewBox="0 0 30 30" enable-background="new 0 0 30 30" xml:space="preserve">
<g>
	<path fill="#822EC4" d="M24.916,7.014c0.248,0.248,0.373,0.552,0.373,0.914v16.075c0,0.361-0.125,0.666-0.373,0.914
		c-0.246,0.248-0.553,0.373-0.914,0.373H5.999c-0.362,0-0.667-0.125-0.915-0.373s-0.372-0.553-0.372-0.914V7.927
		c0-0.362,0.124-0.667,0.372-0.914c0.248-0.248,0.553-0.372,0.915-0.372h5.144V5.355c0-0.181,0.062-0.333,0.186-0.458
		c0.124-0.124,0.276-0.186,0.458-0.186c0.181,0,0.333,0.062,0.457,0.186s0.186,0.276,0.186,0.458v1.286h5.145V5.355
		c0-0.181,0.061-0.333,0.186-0.458c0.123-0.124,0.275-0.186,0.457-0.186c0.181,0,0.332,0.062,0.457,0.186
		c0.123,0.124,0.187,0.276,0.187,0.458v1.286h5.144C24.363,6.642,24.67,6.766,24.916,7.014z M24.002,7.927h-5.144V8.57
		c0,0.181-0.062,0.333-0.187,0.457s-0.276,0.186-0.457,0.186c-0.182,0-0.334-0.062-0.457-0.186
		c-0.125-0.124-0.187-0.276-0.187-0.457V7.927h-5.143V8.57c0,0.181-0.062,0.333-0.186,0.457s-0.276,0.186-0.457,0.186
		c-0.181,0-0.333-0.062-0.458-0.186c-0.123-0.124-0.185-0.277-0.185-0.457V7.927H5.999v16.075h18.003V7.927z M10.957,12.615
		c0.124,0.124,0.186,0.276,0.186,0.457v1.286c0,0.181-0.062,0.333-0.186,0.457S10.681,15,10.5,15H9.213
		c-0.181,0-0.333-0.062-0.457-0.186S8.57,14.539,8.57,14.357v-1.286c0-0.181,0.062-0.333,0.186-0.457
		c0.124-0.124,0.276-0.187,0.457-0.187H10.5C10.681,12.428,10.833,12.491,10.957,12.615z M10.957,17.758
		c0.124,0.125,0.186,0.277,0.186,0.457v1.287c0,0.181-0.062,0.332-0.186,0.457c-0.124,0.123-0.276,0.186-0.457,0.186H9.213
		c-0.181,0-0.333-0.062-0.457-0.186c-0.124-0.125-0.186-0.276-0.186-0.457v-1.287c0-0.18,0.062-0.332,0.186-0.457
		c0.124-0.123,0.276-0.186,0.457-0.186H10.5C10.681,17.572,10.833,17.635,10.957,17.758z M16.102,12.615
		c0.123,0.124,0.186,0.276,0.186,0.457v1.286c0,0.181-0.062,0.333-0.187,0.457C15.978,14.938,15.824,15,15.645,15h-1.287
		c-0.181,0-0.333-0.062-0.457-0.186s-0.186-0.276-0.186-0.457v-1.286c0-0.181,0.062-0.333,0.186-0.457
		c0.124-0.124,0.276-0.187,0.457-0.187h1.287C15.824,12.428,15.978,12.491,16.102,12.615z M16.102,17.758
		c0.123,0.125,0.186,0.277,0.186,0.457v1.287c0,0.181-0.062,0.332-0.186,0.457c-0.124,0.123-0.275,0.186-0.457,0.186h-1.287
		c-0.181,0-0.333-0.062-0.457-0.186c-0.124-0.125-0.186-0.276-0.186-0.457v-1.287c0-0.18,0.062-0.332,0.186-0.457
		c0.124-0.123,0.276-0.186,0.457-0.186h1.287C15.824,17.572,15.978,17.635,16.102,17.758z M19.045,14.814
		c-0.125-0.124-0.187-0.276-0.187-0.457v-1.286c0-0.181,0.062-0.333,0.187-0.457c0.123-0.124,0.275-0.187,0.457-0.187h1.285
		c0.182,0,0.334,0.062,0.457,0.187c0.125,0.124,0.187,0.276,0.187,0.457v1.286c0,0.181-0.062,0.333-0.187,0.457
		C21.121,14.938,20.969,15,20.787,15h-1.285C19.32,15,19.168,14.938,19.045,14.814z M19.045,19.959
		c-0.125-0.125-0.187-0.276-0.187-0.457v-1.287c0-0.18,0.062-0.332,0.187-0.457c0.123-0.123,0.275-0.186,0.457-0.186h1.285
		c0.182,0,0.334,0.062,0.457,0.186c0.125,0.125,0.187,0.277,0.187,0.457v1.287c0,0.181-0.062,0.332-0.187,0.457
		c-0.123,0.123-0.275,0.186-0.457,0.186h-1.285C19.32,20.145,19.168,20.082,19.045,19.959z"/>
</g>
</svg>
