<?xml version="1.0" encoding="utf-8"?>
<!-- Generator: Adobe Illustrator 15.1.0, SVG Export Plug-In . SVG Version: 6.00 Build 0)  -->
<!DOCTYPE svg PUBLIC "-//W3C//DTD SVG 1.1//EN" "http://www.w3.org/Graphics/SVG/1.1/DTD/svg11.dtd">
<svg version="1.1" id="Layer_1" xmlns="http://www.w3.org/2000/svg" xmlns:xlink="http://www.w3.org/1999/xlink" x="0px" y="0px"
	 width="30px" height="30px" viewBox="-7 -7 30 30" enable-background="new -7 -7 30 30" xml:space="preserve">
<g>
	<path d="M17.916,0.013c0.248,0.248,0.372,0.552,0.372,0.914v16.075c0,0.361-0.124,0.666-0.372,0.914
		c-0.247,0.248-0.553,0.372-0.914,0.372H-1.002c-0.362,0-0.667-0.124-0.915-0.372c-0.248-0.248-0.372-0.553-0.372-0.914V0.927
		c0-0.362,0.124-0.667,0.372-0.914c0.248-0.248,0.553-0.372,0.915-0.372h5.144v-1.286c0-0.181,0.062-0.333,0.186-0.458
		c0.124-0.124,0.276-0.186,0.458-0.186c0.181,0,0.333,0.062,0.457,0.186c0.124,0.124,0.186,0.276,0.186,0.458v1.286h5.144v-1.286
		c0-0.181,0.062-0.333,0.186-0.458c0.124-0.124,0.276-0.186,0.457-0.186s0.333,0.062,0.457,0.186
		c0.124,0.124,0.187,0.276,0.187,0.458v1.286h5.144C17.363-0.359,17.669-0.235,17.916,0.013z M17.002,0.927h-5.144V1.57
		c0,0.181-0.062,0.333-0.187,0.457c-0.124,0.124-0.276,0.186-0.457,0.186s-0.333-0.062-0.457-0.186
		c-0.124-0.124-0.186-0.276-0.186-0.457V0.927H5.428V1.57c0,0.181-0.062,0.333-0.186,0.457C5.118,2.151,4.966,2.213,4.785,2.213
		c-0.181,0-0.333-0.062-0.458-0.186C4.204,1.903,4.142,1.75,4.142,1.57V0.927h-5.144v16.075h18.004V0.927z M3.956,5.614
		C4.08,5.738,4.142,5.89,4.142,6.071v1.286c0,0.181-0.062,0.333-0.186,0.457S3.68,8,3.499,8H2.213C2.032,8,1.88,7.938,1.756,7.814
		S1.57,7.538,1.57,7.357V6.071c0-0.181,0.062-0.333,0.186-0.457s0.276-0.186,0.457-0.186h1.286C3.68,5.428,3.832,5.49,3.956,5.614z
		 M3.956,10.758c0.124,0.124,0.186,0.276,0.186,0.457v1.286c0,0.181-0.062,0.333-0.186,0.457s-0.276,0.186-0.457,0.186H2.213
		c-0.181,0-0.333-0.062-0.457-0.186S1.57,12.682,1.57,12.501v-1.286c0-0.181,0.062-0.333,0.186-0.457s0.276-0.186,0.457-0.186h1.286
		C3.68,10.572,3.832,10.634,3.956,10.758z M9.101,5.614C9.224,5.738,9.286,5.89,9.286,6.071v1.286c0,0.181-0.062,0.333-0.186,0.457
		C8.977,7.938,8.824,8,8.644,8H7.357C7.176,8,7.024,7.938,6.9,7.814S6.714,7.538,6.714,7.357V6.071c0-0.181,0.062-0.333,0.186-0.457
		s0.276-0.186,0.457-0.186h1.287C8.824,5.428,8.977,5.49,9.101,5.614z M9.101,10.758c0.123,0.124,0.186,0.276,0.186,0.457v1.286
		c0,0.181-0.062,0.333-0.186,0.457c-0.124,0.124-0.276,0.186-0.457,0.186H7.357c-0.181,0-0.333-0.062-0.457-0.186
		s-0.186-0.276-0.186-0.457v-1.286c0-0.181,0.062-0.333,0.186-0.457s0.276-0.186,0.457-0.186h1.287
		C8.824,10.572,8.977,10.634,9.101,10.758z M12.044,7.814c-0.124-0.124-0.186-0.276-0.186-0.457V6.071
		c0-0.181,0.062-0.333,0.186-0.457s0.276-0.186,0.457-0.186h1.286c0.181,0,0.333,0.062,0.457,0.186S14.43,5.89,14.43,6.071v1.286
		c0,0.181-0.062,0.333-0.186,0.457S13.968,8,13.787,8h-1.286C12.32,8,12.168,7.938,12.044,7.814z M12.044,12.958
		c-0.124-0.124-0.186-0.276-0.186-0.457v-1.286c0-0.181,0.062-0.333,0.186-0.457s0.276-0.186,0.457-0.186h1.286
		c0.181,0,0.333,0.062,0.457,0.186s0.186,0.276,0.186,0.457v1.286c0,0.181-0.062,0.333-0.186,0.457s-0.276,0.186-0.457,0.186h-1.286
		C12.32,13.144,12.168,13.082,12.044,12.958z"/>
</g>
</svg>
