<?xml version="1.0" encoding="utf-8"?>
<!-- Generator: Adobe Illustrator 16.0.0, SVG Export Plug-In . SVG Version: 6.00 Build 0)  -->
<!DOCTYPE svg PUBLIC "-//W3C//DTD SVG 1.1//EN" "http://www.w3.org/Graphics/SVG/1.1/DTD/svg11.dtd">
<svg version="1.1" id="Layer_1" xmlns="http://www.w3.org/2000/svg" xmlns:xlink="http://www.w3.org/1999/xlink" x="0px" y="0px"
	 width="30px" height="30px" viewBox="-10 0 30 30" enable-background="new -10 0 30 30" xml:space="preserve">
<g>
	<path fill="#822EC4" d="M4.312,6.497c1.429,0,2.75,0.357,3.966,1.071s2.18,1.679,2.895,2.895c0.714,1.215,1.071,2.537,1.071,3.966
		s-0.357,2.751-1.071,3.966c-0.715,1.215-1.679,2.18-2.895,2.895c-1.216,0.714-2.537,1.071-3.966,1.071s-2.75-0.357-3.966-1.071
		c-1.215-0.715-2.18-1.68-2.895-2.895s-1.071-2.537-1.071-3.966s0.357-2.75,1.071-3.966s1.679-2.18,2.895-2.895
		C1.562,6.854,2.884,6.497,4.312,6.497z M6.104,18.139v-0.768c0-0.106-0.037-0.197-0.112-0.271
		c-0.074-0.075-0.165-0.112-0.271-0.112H5.336v-3.198c0-0.106-0.037-0.197-0.112-0.272c-0.074-0.075-0.165-0.112-0.271-0.112H2.905
		c-0.106,0-0.197,0.037-0.271,0.112c-0.075,0.075-0.112,0.166-0.112,0.272v0.768c0,0.106,0.037,0.197,0.112,0.272
		c0.074,0.075,0.165,0.112,0.271,0.112h0.384v2.047H2.905c-0.106,0-0.197,0.037-0.271,0.112c-0.075,0.074-0.112,0.165-0.112,0.271
		v0.768c0,0.106,0.037,0.197,0.112,0.271c0.074,0.075,0.165,0.112,0.271,0.112H5.72c0.106,0,0.197-0.037,0.271-0.112
		C6.066,18.336,6.104,18.245,6.104,18.139z M4.312,10.015c-0.362,0-0.677,0.133-0.943,0.4s-0.4,0.581-0.4,0.943
		s0.134,0.677,0.4,0.943s0.581,0.4,0.943,0.4s0.677-0.133,0.943-0.4s0.4-0.581,0.4-0.943s-0.134-0.677-0.4-0.943
		S4.675,10.015,4.312,10.015z"/>
</g>
</svg>
