<?xml version="1.0" encoding="utf-8"?>
<!-- Generator: Adobe Illustrator 16.0.0, SVG Export Plug-In . SVG Version: 6.00 Build 0)  -->
<!DOCTYPE svg PUBLIC "-//W3C//DTD SVG 1.1//EN" "http://www.w3.org/Graphics/SVG/1.1/DTD/svg11.dtd">
<svg version="1.1" id="Layer_1" xmlns="http://www.w3.org/2000/svg" xmlns:xlink="http://www.w3.org/1999/xlink" x="0px" y="0px"
	 width="30px" height="30px" viewBox="-10 0 30 30" enable-background="new -10 0 30 30" xml:space="preserve">
<g>
	<path fill="#822EC4" d="M5,7.503c1.351,0,2.6,0.337,3.749,1.013c1.148,0.675,2.06,1.587,2.735,2.736
		c0.675,1.149,1.013,2.398,1.013,3.749s-0.338,2.601-1.013,3.748c-0.676,1.148-1.587,2.061-2.735,2.736
		C7.6,22.159,6.351,22.497,5,22.497s-2.599-0.338-3.749-1.013c-1.149-0.676-2.061-1.588-2.736-2.736
		C-2.16,17.601-2.497,16.351-2.497,15s0.337-2.6,1.013-3.749s1.587-2.061,2.736-2.736C2.401,7.84,3.649,7.503,5,7.503z
		 M6.724,18.084c0.08,0.06,0.171,0.08,0.272,0.06c0.101-0.02,0.181-0.07,0.241-0.151l0.846-1.147
		c0.061-0.081,0.086-0.172,0.076-0.272c-0.011-0.101-0.056-0.182-0.136-0.242l-1.936-1.391v-4.172c0-0.101-0.034-0.186-0.105-0.257
		c-0.07-0.071-0.156-0.105-0.257-0.105H4.274c-0.101,0-0.187,0.035-0.256,0.105c-0.071,0.071-0.106,0.156-0.106,0.257v5.079
		c0,0.121,0.051,0.222,0.151,0.302L6.724,18.084z"/>
</g>
</svg>
