<svg  xmlns="http://www.w3.org/2000/svg" x="0px" y="0px" width="12px" height="12px" viewBox="0 0 12 12" enable-background="new 0 0 12 12" xml:space="preserve">
<g>
	<path d="M6.103,0.803c1.037,0,1.987,0.207,2.853,0.622c0.867,0.415,1.555,0.973,2.067,1.677c0.511,0.703,0.766,1.477,0.766,2.321
		c0,0.843-0.255,1.618-0.766,2.32c-0.513,0.704-1.2,1.262-2.067,1.678C8.09,9.835,7.14,10.043,6.103,10.043
		c-0.829,0-1.621-0.142-2.376-0.423c-0.386,0.296-0.792,0.541-1.222,0.733c-0.622,0.266-1.259,0.399-1.909,0.399
		c-0.075,0-0.126-0.038-0.155-0.111c-0.03-0.073-0.023-0.141,0.021-0.2c0.134-0.134,0.303-0.349,0.51-0.644
		c0.356-0.519,0.592-1.006,0.711-1.466C1.284,7.917,0.972,7.465,0.751,6.978C0.529,6.488,0.417,5.971,0.417,5.423
		c0-0.844,0.255-1.618,0.766-2.321c0.512-0.704,1.2-1.262,2.066-1.677C4.116,1.01,5.067,0.803,6.103,0.803z"/>
</g>
</svg>
