
<svg  xmlns="http://www.w3.org/2000/svg" x="0px" y="0px" width="12px" height="12px" viewBox="9 9 12 12" enable-background="new 9 9 12 12" xml:space="preserve">
<g>
	<path class="link" fill="" d="M17.436,15.307c0.096-0.109,0.211-0.161,0.348-0.154s0.252,0.055,0.348,0.144
		c0.096,0.088,0.143,0.208,0.143,0.357v3.602c0,0.273-0.096,0.505-0.285,0.696c-0.191,0.19-0.424,0.286-0.697,0.286h-7.202
		c-0.273,0-0.505-0.096-0.696-0.286c-0.191-0.191-0.287-0.423-0.287-0.696v-7.202c0-0.273,0.096-0.505,0.287-0.696
		s0.423-0.287,0.696-0.287h6.057c0.137,0,0.252,0.048,0.348,0.143c0.096,0.096,0.143,0.211,0.143,0.348
		c0,0.136-0.047,0.252-0.143,0.348l-0.328,0.328c-0.096,0.095-0.211,0.143-0.348,0.143h-5.402v6.548h6.548v-2.946
		c0-0.137,0.047-0.252,0.143-0.348L17.436,15.307z M20.893,10.253c0-0.137-0.047-0.252-0.143-0.348
		c-0.096-0.095-0.211-0.143-0.348-0.143h-2.619c-0.137,0-0.252,0.048-0.348,0.143c-0.096,0.096-0.145,0.211-0.145,0.348
		c0,0.136,0.049,0.252,0.145,0.348l0.736,0.737l-4.993,4.972c-0.096,0.096-0.144,0.212-0.144,0.348c0,0.137,0.048,0.253,0.144,0.348
		l0.471,0.471c0.096,0.096,0.211,0.144,0.348,0.144s0.252-0.048,0.348-0.144l4.973-4.992l0.736,0.736
		c0.096,0.096,0.211,0.144,0.348,0.144s0.252-0.048,0.348-0.144c0.096-0.095,0.143-0.211,0.143-0.348V10.253z"/>
</g>
</svg>
