<?xml version="1.0" encoding="utf-8"?>
<!-- Generator: Adobe Illustrator 15.1.0, SVG Export Plug-In . SVG Version: 6.00 Build 0)  -->
<!DOCTYPE svg PUBLIC "-//W3C//DTD SVG 1.1//EN" "http://www.w3.org/Graphics/SVG/1.1/DTD/svg11.dtd">
<svg version="1.1" id="Layer_1" xmlns="http://www.w3.org/2000/svg" xmlns:xlink="http://www.w3.org/1999/xlink" x="0px" y="0px"
	 width="60px" height="60px" viewBox="0 0 60 60" enable-background="new 0 0 60 60" xml:space="preserve">
<circle opacity="0.2" fill="#FFFFFF" enable-background="new    " cx="30" cy="30.001" r="16"/>
<circle opacity="0.2" fill="#FFFFFF" enable-background="new    " cx="30" cy="30" r="23.631"/>
<circle opacity="0.2" fill="#FFFFFF" enable-background="new    " cx="30" cy="29.999" r="29.999"/>
<g>
	<path fill="#FFFFFF" d="M32.98,39.178c-0.478,0.086-0.636-0.209-0.636-0.454c0-0.305,0-1.326,0-2.588
		c0-0.884-0.296-1.448-0.637-1.743c2.097-0.233,4.305-1.03,4.305-4.651c0-1.031-0.367-1.878-0.968-2.527
		c0.1-0.246,0.416-1.203-0.099-2.504c-0.785-0.246-2.591,0.97-2.591,0.97c-0.747-0.21-1.557-0.319-2.354-0.319
		c-0.797,0-1.608,0.11-2.357,0.319c0,0-1.803-1.216-2.602-0.97c-0.502,1.3-0.184,2.258-0.086,2.504
		c-0.6,0.649-0.969,1.497-0.969,2.527c0,3.607,2.197,4.417,4.296,4.651c-0.271,0.244-0.515,0.65-0.602,1.262
		c-0.54,0.248-1.914,0.663-2.736-0.783c-0.516-0.897-1.448-0.969-1.448-0.969c-0.919-0.013-0.061,0.577-0.061,0.577
		c0.612,0.283,1.042,1.374,1.042,1.374c0.553,1.681,3.179,1.117,3.179,1.117c0,0.785,0.013,1.533,0.013,1.755
		c0,0.245-0.171,0.54-0.651,0.454c-3.742-1.251-6.441-4.787-6.441-8.947c0-5.202,4.221-9.424,9.424-9.424
		c5.203,0,9.423,4.222,9.423,9.424C39.424,34.393,36.724,37.927,32.98,39.178z"/>
</g>
</svg>
