<?xml version="1.0" encoding="utf-8"?>
<!-- Generator: Adobe Illustrator 15.1.0, SVG Export Plug-In . SVG Version: 6.00 Build 0)  -->
<!DOCTYPE svg PUBLIC "-//W3C//DTD SVG 1.1//EN" "http://www.w3.org/Graphics/SVG/1.1/DTD/svg11.dtd">
<svg version="1.1" id="Layer_1" xmlns="http://www.w3.org/2000/svg" xmlns:xlink="http://www.w3.org/1999/xlink" x="0px" y="0px"
	 width="16px" height="16px" viewBox="22 22 16 16" enable-background="new 22 22 16 16" xml:space="preserve">
<g>
	<path fill="#FFFFFF" d="M32.168,36.677c-0.348,0.062-0.463-0.152-0.463-0.329c0-0.223,0-0.965,0-1.884
		c0-0.643-0.215-1.054-0.463-1.268c1.525-0.169,3.131-0.749,3.131-3.383c0-0.75-0.267-1.366-0.704-1.838
		c0.073-0.179,0.303-0.875-0.071-1.822c-0.571-0.179-1.886,0.706-1.886,0.706C31.17,26.706,30.58,26.626,30,26.626
		c-0.58,0-1.169,0.081-1.714,0.232c0,0-1.312-0.885-1.893-0.706c-0.365,0.946-0.134,1.643-0.062,1.822
		c-0.437,0.472-0.705,1.089-0.705,1.838c0,2.625,1.599,3.213,3.125,3.383c-0.197,0.177-0.375,0.473-0.438,0.918
		c-0.393,0.18-1.392,0.482-1.99-0.569c-0.375-0.653-1.053-0.706-1.053-0.706c-0.668-0.008-0.044,0.421-0.044,0.421
		c0.445,0.206,0.758,0.999,0.758,0.999c0.402,1.224,2.312,0.812,2.312,0.812c0,0.571,0.009,1.115,0.009,1.277
		c0,0.178-0.124,0.393-0.473,0.33c-2.722-0.91-4.686-3.482-4.686-6.509c0-3.784,3.07-6.855,6.855-6.855s6.854,3.072,6.854,6.855
		C36.855,33.196,34.892,35.767,32.168,36.677z"/>
</g>
</svg>
